<svg width="159" height="181" viewBox="0 0 159 181" fill="none" xmlns="http://www.w3.org/2000/svg">
<path d="M153.8 48.9C152.3 45.9 149.2 44.2 145.3 41.9C140.3 38.9 135.2 36 129.9 32.9C122.1 28.3 113.3 23.2 105.5 18.6C99.8 15.3 94.6 12.2 90.6 9.9C85.4 7.2 82.2 3.8 76.9 5.5C59.2 15.3 34.7 29.4 15.1 41.4C15.1 41.4 7.8 46.3 6.1 48.3C5.8 48.6 5.7 48.9 5.5 49.3L79.3 91.4L153.8 48.9Z" fill="#8A8A8A"/>
<path d="M154.8 53.8C154.8 51.8 154.5 50.2 153.8 48.9L79.3 91.4L79.5 177.7C82.4 177.8 84.4 176.5 87.7 174.7C103.8 165.3 133.1 148.3 148.3 139.3C155.6 135.4 154.9 130.9 154.9 122.8V104.3C154.9 87.7 155.1 70.3 154.8 53.8Z" fill="#494949"/>
<path d="M5.5 49.3C4.7 50.9 4.9 53 4.8 55C4.6 71.8 4.8 107.9 4.8 124.5C4.8 128 4.6 131.6 6.5 134.4C7.8 136.3 10.7 138.2 13.1 139.6C25.4 147 55.8 165.1 69.7 173.3C72.5 174.9 75.3 176.8 78.2 177.5C78.7 177.5 79.1 177.6 79.5 177.7L79.3 91.4L5.5 49.3Z" fill="#616161"/>
<path d="M21.4 130.1C20.8 129.7 20.4 129.3 20 128.7C19.6 128.1 19.5 127.5 19.5 126.9V75.6C19.5 75 19.8 74.7 20.1 74.5C20.5 74.4 20.9 74.5 21.5 74.8L43.1 88.1C47.4 90.7 51.1 93.7 54.3 97C57.5 100.3 59.9 103.8 61.7 107.6C63.5 111.4 64.4 115.3 64.4 119.4C64.4 123.5 63.5 126.2 61.7 127.8C59.9 129.3 57.4 129.8 54.3 129.1C51.1 128.4 47.4 126.8 43.1 124.1L33.9 118.4V135.7C33.9 136.3 33.7 136.6 33.3 136.8C32.9 136.9 32.4 136.8 31.9 136.5L21.5 130.1H21.4ZM33.7 107.4L42.7 113C44.9 114.4 46.7 114.9 48 114.5C49.3 114.1 50 112.8 50 110.4C50 108.4 49.4 106.4 48.3 104.3C47.2 102.2 45.3 100.4 42.7 98.8L33.7 93.2V107.3V107.4Z" fill="#D1D1D1"/>
<path d="M97 152.2C96.4 152.6 95.8 152.7 95.4 152.5C95 152.4 94.8 152 94.8 151.4L95.4 99.4C95.4 98.8 95.6 98.2 96 97.6C96.4 97 96.9 96.5 97.6 96.1L109.1 89.5C109.7 89.2 110.2 89.1 110.6 89.2C111 89.3 111.2 89.7 111.2 90.3L110.7 132.2L137 117C137.6 116.6 138.2 116.5 138.6 116.7C139 116.9 139.2 117.2 139.2 117.8V125.8C139.2 126.4 138.9 127 138.4 127.6C137.9 128.2 137.4 128.7 136.8 129.1L96.9 152.2H97Z" fill="#D1D1D1"/>
<path d="M57.8 62.5C57.8 62.5 57.6 62.5 57.5 62.5C57.3 62.5 57.2 62.5 57 62.3L35.8 50C35.3 49.7 34.9 49.4 34.6 49.1C34.3 48.8 34.2 48.4 34.2 47.9V46.2C34.2 45.7 34.3 45.3 34.6 45C34.9 44.7 35.3 44.4 35.8 44.1L57 31.7C57.1 31.7 57.3 31.6 57.5 31.6C57.6 31.6 57.8 31.6 57.8 31.6C58.1 31.6 58.4 31.6 58.6 31.9C58.8 32.1 58.9 32.3 58.9 32.6V39.1C58.9 39.7 58.7 40.1 58.3 40.4C57.9 40.7 57.6 40.9 57.2 41.1L46.3 47.1L57.2 53.2C57.6 53.4 57.9 53.6 58.3 53.8C58.7 54.1 58.9 54.5 58.9 55.1V61.6C58.9 61.9 58.8 62.2 58.6 62.3C58.4 62.5 58.1 62.6 57.8 62.6V62.5Z" fill="#D1D1D1"/>
<path d="M64.5 66.5C64.2 66.5 63.9 66.4 63.6 66.2C63.4 66 63.2 65.7 63.2 65.5C63.2 65.3 63.2 65.2 63.3 65.1L82.1 26.1C82.3 25.8 82.5 25.5 82.9 25.2C83.3 24.9 83.7 24.8 84.4 24.8H90.6C90.9 24.8 91.2 24.9 91.5 25.1C91.8 25.3 91.9 25.6 91.9 25.8C91.9 26 91.9 26.1 91.7 26.2L72.8 65.2C72.7 65.5 72.5 65.8 72.1 66.1C71.7 66.4 71.2 66.5 70.5 66.5H64.4H64.5Z" fill="#D1D1D1"/>
<path d="M97.5 62.6C97.2 62.6 96.9 62.6 96.7 62.3C96.5 62 96.4 61.9 96.4 61.6V55.1C96.4 54.5 96.6 54.1 97 53.8C97.4 53.5 97.8 53.3 98.1 53.1L109.1 47L98.1 41C97.8 40.8 97.4 40.6 97 40.3C96.6 40 96.4 39.6 96.4 39V32.5C96.4 32.2 96.5 32 96.7 31.8C96.9 31.6 97.2 31.5 97.5 31.5C97.8 31.5 97.7 31.5 97.9 31.5C98.1 31.5 98.2 31.6 98.3 31.7L119.6 44.1C120.1 44.4 120.5 44.7 120.8 45C121.1 45.3 121.2 45.7 121.2 46.2V48C121.2 48.5 121.1 48.9 120.8 49.2C120.5 49.5 120.1 49.8 119.6 50.1L98.3 62.5C98.1 62.5 98 62.6 97.9 62.7C97.8 62.7 97.6 62.7 97.5 62.7V62.6Z" fill="#D1D1D1"/>
</svg>
